<svg width="473" height="95" viewBox="0 0 473 95" fill="none" xmlns="http://www.w3.org/2000/svg">
<path d="M14.407 26.728C15.46 26.728 16.222 26.435 16.694 25.85C17.165 25.265 17.401 24.568 17.401 23.758C17.401 23.308 17.341 22.892 17.22 22.509C17.1034 22.134 16.9069 21.7887 16.644 21.497C16.381 21.2351 16.0682 21.0287 15.724 20.89C15.35 20.732 14.912 20.653 14.407 20.653C13.903 20.653 13.464 20.733 13.092 20.89C12.719 21.047 12.412 21.25 12.171 21.497C11.9063 21.7918 11.7144 22.1446 11.611 22.527C11.5006 22.928 11.4454 23.3421 11.447 23.758C11.447 24.568 11.677 25.265 12.137 25.85C12.598 26.435 13.355 26.728 14.407 26.728ZM28.65 70.258V66.648H16.513V33.747H0V37.357H12.598V66.647H0V70.258H28.65ZM39.801 70.258L39.834 42.418C40.01 41.744 40.229 41.069 40.492 40.394C40.7489 39.7299 41.1161 39.1139 41.578 38.572C42.06 37.987 42.68 37.52 43.436 37.172C44.193 36.822 45.141 36.637 46.281 36.615C47.312 36.592 48.161 36.75 48.831 37.087C49.499 37.425 50.031 37.875 50.426 38.437C50.821 39.022 51.095 39.691 51.248 40.445C51.402 41.198 51.478 41.958 51.478 42.723L51.511 70.258H55.228L55.261 42.756L55.257 42.596L55.245 42.453C55.2332 42.3521 55.2276 42.2506 55.228 42.149C55.382 41.474 55.601 40.81 55.886 40.158C56.1672 39.5116 56.5568 38.9181 57.038 38.403C57.542 37.886 58.167 37.464 58.913 37.138C59.658 36.812 60.579 36.638 61.676 36.615C62.75 36.592 63.627 36.767 64.307 37.138C64.987 37.509 65.524 37.998 65.919 38.606C66.3216 39.2564 66.5952 39.9782 66.725 40.732C66.867 41.519 66.939 42.306 66.939 43.094L66.971 70.258H70.688L70.721 43.128C70.721 41.733 70.579 40.422 70.294 39.196C70.009 37.97 69.537 36.896 68.879 35.974C68.287 35.096 67.465 34.394 66.412 33.864C65.36 33.336 64.088 33.072 62.597 33.072C61.566 33.072 60.628 33.207 59.784 33.477C58.94 33.747 58.178 34.107 57.498 34.557C56.8744 34.9735 56.3103 35.4727 55.821 36.041C55.3481 36.5889 54.9395 37.1892 54.603 37.83C54.3903 37.191 54.1033 36.5791 53.748 36.007C53.395 35.4425 52.9502 34.941 52.432 34.523C51.84 34.073 51.139 33.718 50.327 33.46C49.516 33.201 48.584 33.072 47.531 33.072C45.58 33.094 43.973 33.538 42.712 34.405C41.452 35.271 40.47 36.424 39.768 37.863L39.637 33.747H36.117V70.258H39.801ZM95.128 70.933C98.088 70.933 100.688 70.337 102.924 69.145C105.161 67.953 106.959 66.389 108.319 64.455L105.819 62.497C104.547 64.117 103.023 65.354 101.247 66.209C99.47 67.064 97.486 67.491 95.293 67.491C93.385 67.469 91.653 67.075 90.096 66.311C88.5533 65.5571 87.1862 64.4877 86.083 63.172C84.986 61.912 84.126 60.45 83.501 58.785C82.876 57.12 82.519 55.321 82.431 53.386V52.272H109.075V49.81C109.075 47.493 108.752 45.316 108.105 43.28C107.458 41.244 106.521 39.462 105.293 37.932C104.043 36.425 102.503 35.238 100.671 34.372C98.84 33.506 96.751 33.072 94.405 33.072C92.168 33.072 90.09 33.545 88.171 34.49C86.2487 35.4376 84.5415 36.7697 83.155 38.404C81.708 40.069 80.573 42.026 79.751 44.276C78.928 46.526 78.517 48.956 78.517 51.565V53.015C78.517 55.468 78.923 57.779 79.734 59.95C80.546 62.121 81.686 64.028 83.155 65.67C84.602 67.29 86.345 68.572 88.385 69.517C90.425 70.462 92.672 70.934 95.128 70.934V70.933ZM105.161 48.797H82.629C82.849 47.042 83.287 45.417 83.945 43.921C84.602 42.425 85.447 41.125 86.477 40.023C87.473 38.9523 88.6688 38.0867 89.997 37.475C91.335 36.857 92.804 36.547 94.405 36.547C96.093 36.547 97.595 36.879 98.911 37.543C100.2 38.1855 101.342 39.0873 102.266 40.192C103.166 41.294 103.873 42.576 104.388 44.039C104.903 45.501 105.161 46.963 105.161 48.426V48.796V48.797ZM129.93 70.258L129.864 46.873C130.303 45.209 130.934 43.763 131.756 42.537C132.578 41.311 133.548 40.293 134.666 39.483C135.855 38.6382 137.187 38.0152 138.597 37.644C140.056 37.25 141.618 37.054 143.285 37.054C144.25 37.054 145.193 37.11 146.114 37.222C147.034 37.335 147.944 37.492 148.844 37.695L149.37 33.78C148.69 33.555 147.851 33.38 146.854 33.257C145.877 33.1348 144.894 33.073 143.91 33.072C140.686 33.049 137.885 33.735 135.505 35.13C133.126 36.525 131.245 38.47 129.865 40.968L129.831 39.348L129.601 33.747H125.851V70.258H129.93ZM175.553 70.933C177.407 70.9346 179.254 70.6966 181.047 70.225C182.845 69.752 184.424 69.021 185.783 68.031C186.898 67.2029 187.827 66.1516 188.513 64.944C189.215 63.718 189.566 62.317 189.566 60.742C189.566 59.078 189.199 57.655 188.464 56.474C187.73 55.293 186.748 54.286 185.52 53.454C184.27 52.621 182.823 51.935 181.178 51.395C179.48 50.8406 177.757 50.3677 176.014 49.978C174.659 49.6973 173.314 49.3651 171.984 48.982C170.702 48.612 169.6 48.144 168.679 47.582C167.758 47.064 167.056 46.418 166.573 45.642C166.091 44.865 165.85 43.949 165.85 42.892C165.85 41.834 166.124 40.906 166.672 40.107C167.23 39.2992 167.96 38.625 168.81 38.133C169.687 37.593 170.69 37.194 171.82 36.935C172.969 36.6741 174.144 36.5439 175.323 36.547C176.595 36.547 177.829 36.716 179.023 37.053C180.219 37.391 181.288 37.875 182.231 38.505C183.135 39.1171 183.902 39.9097 184.484 40.833C185.065 41.755 185.367 42.801 185.389 43.971H189.369C189.303 42.239 188.892 40.698 188.135 39.348C187.383 38.0032 186.357 36.8307 185.125 35.906C183.875 34.984 182.412 34.281 180.735 33.797C179.057 33.313 177.253 33.072 175.323 33.072C173.613 33.072 171.952 33.297 170.34 33.747C168.728 34.197 167.32 34.827 166.113 35.637C164.841 36.514 163.827 37.571 163.07 38.808C162.314 40.046 161.935 41.452 161.935 43.026C161.935 44.691 162.314 46.103 163.07 47.261C163.833 48.4256 164.851 49.401 166.047 50.113C167.385 50.9104 168.808 51.5554 170.29 52.036C171.932 52.5649 173.601 53.0042 175.29 53.352C176.703 53.6576 178.097 54.0408 179.468 54.5C180.805 54.95 181.946 55.49 182.888 56.12C183.744 56.682 184.413 57.362 184.895 58.16C185.378 58.96 185.619 59.888 185.619 60.945C185.619 61.8 185.438 62.575 185.076 63.273C184.698 63.9898 184.178 64.6214 183.546 65.129C182.538 65.917 181.343 66.507 179.961 66.901C178.58 67.295 177.111 67.491 175.553 67.491C174.369 67.491 173.158 67.373 171.919 67.137C170.724 66.9167 169.573 66.5005 168.514 65.905C167.49 65.3262 166.599 64.5389 165.899 63.594C165.186 62.638 164.764 61.44 164.633 60H160.686C160.751 61.665 161.173 63.172 161.952 64.522C162.73 65.872 163.799 67.019 165.159 67.964C166.475 68.886 168.032 69.612 169.829 70.14C171.629 70.669 173.536 70.933 175.553 70.933ZM207.493 26.693C207.537 25.884 207.762 25.17 208.167 24.551C208.573 23.932 209.094 23.533 209.73 23.353C210.169 23.151 210.624 23.033 211.095 22.999C211.567 22.965 212.076 23.004 212.625 23.117C213.237 23.2426 213.822 23.4769 214.352 23.809C214.944 24.1823 215.542 24.5477 216.144 24.905C216.736 25.31 217.356 25.665 218.003 25.968C218.65 26.272 219.401 26.424 220.256 26.424C221.176 26.424 222.016 26.238 222.772 25.867C223.519 25.5037 224.177 24.9795 224.697 24.332C225.26 23.6984 225.691 22.9581 225.963 22.155C226.261 21.3027 226.422 20.4086 226.44 19.506L223.874 19C223.835 19.5408 223.724 20.0741 223.545 20.586C223.387 21.0485 223.154 21.4816 222.855 21.868C222.548 22.251 222.175 22.554 221.736 22.779C221.277 23.0089 220.769 23.1248 220.256 23.117C219.379 23.117 218.584 22.926 217.871 22.543C217.151 22.156 216.453 21.728 215.782 21.261C215.077 20.8087 214.353 20.3863 213.612 19.995C212.866 19.602 212.032 19.405 211.112 19.405C210.169 19.405 209.324 19.591 208.579 19.962C207.845 20.3237 207.195 20.835 206.671 21.463C206.113 22.1098 205.678 22.8534 205.388 23.657C205.079 24.501 204.912 25.3904 204.895 26.289L207.493 26.694V26.693ZM212.263 70.933C213.579 70.933 214.845 70.793 216.062 70.512C217.262 70.2366 218.427 69.8232 219.532 69.28C220.598 68.7678 221.598 68.1274 222.509 67.373C223.404 66.6356 224.205 65.7913 224.894 64.859C224.938 65.804 225.02 66.738 225.141 67.66C225.261 68.582 225.442 69.449 225.683 70.258H229.893V69.82C229.573 68.6588 229.316 67.4815 229.121 66.293C228.915 65.0715 228.799 63.8365 228.775 62.598V44.95C228.753 42.97 228.392 41.238 227.69 39.753C227.016 38.3042 226.027 37.0244 224.795 36.007C223.567 35.04 222.131 34.309 220.486 33.814C218.841 33.319 217.076 33.072 215.19 33.072C213.304 33.072 211.534 33.342 209.878 33.882C208.222 34.422 206.77 35.164 205.52 36.109C204.27 37.076 203.272 38.212 202.526 39.517C201.781 40.822 201.375 42.25 201.309 43.802L205.256 43.836C205.3 42.689 205.596 41.66 206.145 40.749C206.697 39.8336 207.436 39.0456 208.315 38.437C209.193 37.807 210.212 37.323 211.375 36.986C212.562 36.6453 213.79 36.4749 215.025 36.48C216.407 36.48 217.695 36.665 218.891 37.037C220.086 37.407 221.122 37.942 221.999 38.64C222.88 39.3422 223.589 40.2367 224.072 41.255C224.576 42.301 224.839 43.51 224.861 44.882V49H217.131C214.999 48.9917 212.872 49.2008 210.783 49.624C208.765 50.041 207 50.71 205.487 51.632C203.952 52.555 202.729 53.752 201.819 55.226C200.909 56.7 200.454 58.482 200.454 60.575C200.454 62.127 200.761 63.545 201.375 64.827C201.963 66.0755 202.816 67.1808 203.875 68.066C204.927 68.966 206.177 69.669 207.625 70.176C209.072 70.681 210.618 70.934 212.263 70.934V70.933ZM212.723 67.323C211.561 67.323 210.476 67.153 209.467 66.816C208.458 66.479 207.581 66.006 206.835 65.399C206.073 64.7985 205.46 64.0307 205.043 63.155C204.615 62.267 204.401 61.282 204.401 60.202C204.379 58.83 204.664 57.672 205.256 56.727C205.848 55.782 206.649 54.983 207.658 54.331C208.886 53.521 210.377 52.959 212.131 52.644C213.967 52.3212 215.827 52.1516 217.691 52.137H224.861V60.135C224.357 61.2141 223.691 62.2099 222.887 63.088C222.071 63.9797 221.129 64.7469 220.091 65.365C219.013 66.0058 217.85 66.4941 216.638 66.816C215.388 67.154 214.083 67.323 212.723 67.323ZM255.551 70.933C258.029 70.933 260.249 70.438 262.211 69.449C264.136 68.4898 265.835 67.1324 267.195 65.467C268.533 63.779 269.564 61.827 270.287 59.612C271.011 57.396 271.373 55.04 271.373 52.542V51.462C271.373 48.965 271.011 46.603 270.287 44.376C269.564 42.149 268.522 40.203 267.162 38.538C265.812 36.8586 264.111 35.4941 262.179 34.54C260.216 33.56 257.985 33.072 255.485 33.072C252.985 33.072 250.759 33.567 248.808 34.556C246.89 35.5186 245.198 36.8756 243.841 38.538C242.481 40.226 241.439 42.183 240.716 44.41C239.992 46.637 239.63 48.988 239.63 51.463V52.543C239.63 55.04 239.992 57.402 240.716 59.629C241.439 61.856 242.492 63.802 243.874 65.467C245.211 67.1532 246.907 68.5192 248.84 69.465C250.814 70.444 253.05 70.933 255.55 70.933H255.551ZM255.551 67.491C253.599 67.491 251.878 67.075 250.387 66.243C248.918 65.4302 247.648 64.3006 246.67 62.936C245.639 61.541 244.866 59.944 244.35 58.144C243.832 56.3212 243.561 54.437 243.545 52.542V51.462C243.563 49.5786 243.834 47.7062 244.351 45.895C244.866 44.095 245.639 42.509 246.67 41.137C247.637 39.7599 248.902 38.618 250.37 37.796C251.85 36.964 253.555 36.547 255.485 36.547C257.415 36.547 259.12 36.964 260.6 37.796C262.079 38.6277 263.364 39.7665 264.366 41.136C265.353 42.509 266.11 44.095 266.636 45.895C267.162 47.695 267.436 49.55 267.458 51.463V52.543C267.442 54.4377 267.171 56.3216 266.652 58.144C266.137 59.944 265.386 61.53 264.399 62.902C263.4 64.2685 262.122 65.4069 260.649 66.242C259.18 67.075 257.481 67.492 255.551 67.492V67.491Z" fill="#353535"/>
<path d="M14.407 26.728C15.46 26.728 16.222 26.435 16.694 25.85C17.165 25.265 17.401 24.568 17.401 23.758C17.401 23.308 17.341 22.892 17.22 22.509C17.1034 22.134 16.9069 21.7887 16.644 21.497C16.381 21.2351 16.0682 21.0287 15.724 20.89C15.35 20.732 14.912 20.653 14.407 20.653C13.903 20.653 13.464 20.733 13.092 20.89C12.719 21.047 12.412 21.25 12.171 21.497C11.9063 21.7918 11.7144 22.1446 11.611 22.527C11.5006 22.928 11.4454 23.3421 11.447 23.758C11.447 24.568 11.677 25.265 12.137 25.85C12.598 26.435 13.355 26.728 14.407 26.728ZM28.65 70.258V66.648H16.513V33.747H0V37.357H12.598V66.647H0V70.258H28.65ZM39.801 70.258L39.834 42.418C40.01 41.744 40.229 41.069 40.492 40.394C40.7489 39.7299 41.1161 39.1139 41.578 38.572C42.06 37.987 42.68 37.52 43.436 37.172C44.193 36.822 45.141 36.637 46.281 36.615C47.312 36.592 48.161 36.75 48.831 37.087C49.499 37.425 50.031 37.875 50.426 38.437C50.821 39.022 51.095 39.691 51.248 40.445C51.402 41.198 51.478 41.958 51.478 42.723L51.511 70.258H55.228L55.261 42.756L55.257 42.596L55.245 42.453C55.2332 42.3521 55.2276 42.2506 55.228 42.149C55.382 41.474 55.601 40.81 55.886 40.158C56.1672 39.5116 56.5568 38.9181 57.038 38.403C57.542 37.886 58.167 37.464 58.913 37.138C59.658 36.812 60.579 36.638 61.676 36.615C62.75 36.592 63.627 36.767 64.307 37.138C64.987 37.509 65.524 37.998 65.919 38.606C66.3216 39.2564 66.5952 39.9782 66.725 40.732C66.867 41.519 66.939 42.306 66.939 43.094L66.971 70.258H70.688L70.721 43.128C70.721 41.733 70.579 40.422 70.294 39.196C70.009 37.97 69.537 36.896 68.879 35.974C68.287 35.096 67.465 34.394 66.412 33.864C65.36 33.336 64.088 33.072 62.597 33.072C61.566 33.072 60.628 33.207 59.784 33.477C58.94 33.747 58.178 34.107 57.498 34.557C56.8744 34.9735 56.3103 35.4727 55.821 36.041C55.3481 36.5889 54.9395 37.1892 54.603 37.83C54.3903 37.191 54.1033 36.5791 53.748 36.007C53.395 35.4425 52.9502 34.941 52.432 34.523C51.84 34.073 51.139 33.718 50.327 33.46C49.516 33.201 48.584 33.072 47.531 33.072C45.58 33.094 43.973 33.538 42.712 34.405C41.452 35.271 40.47 36.424 39.768 37.863L39.637 33.747H36.117V70.258H39.801ZM95.128 70.933C98.088 70.933 100.688 70.337 102.924 69.145C105.161 67.953 106.959 66.389 108.319 64.455L105.819 62.497C104.547 64.117 103.023 65.354 101.247 66.209C99.47 67.064 97.486 67.491 95.293 67.491C93.385 67.469 91.653 67.075 90.096 66.311C88.5533 65.5571 87.1862 64.4877 86.083 63.172C84.986 61.912 84.126 60.45 83.501 58.785C82.876 57.12 82.519 55.321 82.431 53.386V52.272H109.075V49.81C109.075 47.493 108.752 45.316 108.105 43.28C107.458 41.244 106.521 39.462 105.293 37.932C104.043 36.425 102.503 35.238 100.671 34.372C98.84 33.506 96.751 33.072 94.405 33.072C92.168 33.072 90.09 33.545 88.171 34.49C86.2487 35.4376 84.5415 36.7697 83.155 38.404C81.708 40.069 80.573 42.026 79.751 44.276C78.928 46.526 78.517 48.956 78.517 51.565V53.015C78.517 55.468 78.923 57.779 79.734 59.95C80.546 62.121 81.686 64.028 83.155 65.67C84.602 67.29 86.345 68.572 88.385 69.517C90.425 70.462 92.672 70.934 95.128 70.934V70.933ZM105.161 48.797H82.629C82.849 47.042 83.287 45.417 83.945 43.921C84.602 42.425 85.447 41.125 86.477 40.023C87.473 38.9523 88.6688 38.0867 89.997 37.475C91.335 36.857 92.804 36.547 94.405 36.547C96.093 36.547 97.595 36.879 98.911 37.543C100.2 38.1855 101.342 39.0873 102.266 40.192C103.166 41.294 103.873 42.576 104.388 44.039C104.903 45.501 105.161 46.963 105.161 48.426V48.796V48.797ZM129.93 70.258L129.864 46.873C130.303 45.209 130.934 43.763 131.756 42.537C132.578 41.311 133.548 40.293 134.666 39.483C135.855 38.6382 137.187 38.0152 138.597 37.644C140.056 37.25 141.618 37.054 143.285 37.054C144.25 37.054 145.193 37.11 146.114 37.222C147.034 37.335 147.944 37.492 148.844 37.695L149.37 33.78C148.69 33.555 147.851 33.38 146.854 33.257C145.877 33.1348 144.894 33.073 143.91 33.072C140.686 33.049 137.885 33.735 135.505 35.13C133.126 36.525 131.245 38.47 129.865 40.968L129.831 39.348L129.601 33.747H125.851V70.258H129.93ZM175.553 70.933C177.407 70.9346 179.254 70.6966 181.047 70.225C182.845 69.752 184.424 69.021 185.783 68.031C186.898 67.2029 187.827 66.1516 188.513 64.944C189.215 63.718 189.566 62.317 189.566 60.742C189.566 59.078 189.199 57.655 188.464 56.474C187.73 55.293 186.748 54.286 185.52 53.454C184.27 52.621 182.823 51.935 181.178 51.395C179.48 50.8406 177.757 50.3677 176.014 49.978C174.659 49.6973 173.314 49.3651 171.984 48.982C170.702 48.612 169.6 48.144 168.679 47.582C167.758 47.064 167.056 46.418 166.573 45.642C166.091 44.865 165.85 43.949 165.85 42.892C165.85 41.834 166.124 40.906 166.672 40.107C167.23 39.2992 167.96 38.625 168.81 38.133C169.687 37.593 170.69 37.194 171.82 36.935C172.969 36.6741 174.144 36.5439 175.323 36.547C176.595 36.547 177.829 36.716 179.023 37.053C180.219 37.391 181.288 37.875 182.231 38.505C183.135 39.1171 183.902 39.9097 184.484 40.833C185.065 41.755 185.367 42.801 185.389 43.971H189.369C189.303 42.239 188.892 40.698 188.135 39.348C187.383 38.0032 186.357 36.8307 185.125 35.906C183.875 34.984 182.412 34.281 180.735 33.797C179.057 33.313 177.253 33.072 175.323 33.072C173.613 33.072 171.952 33.297 170.34 33.747C168.728 34.197 167.32 34.827 166.113 35.637C164.841 36.514 163.827 37.571 163.07 38.808C162.314 40.046 161.935 41.452 161.935 43.026C161.935 44.691 162.314 46.103 163.07 47.261C163.833 48.4256 164.851 49.401 166.047 50.113C167.385 50.9104 168.808 51.5554 170.29 52.036C171.932 52.5649 173.601 53.0042 175.29 53.352C176.703 53.6576 178.097 54.0408 179.468 54.5C180.805 54.95 181.946 55.49 182.888 56.12C183.744 56.682 184.413 57.362 184.895 58.16C185.378 58.96 185.619 59.888 185.619 60.945C185.619 61.8 185.438 62.575 185.076 63.273C184.698 63.9898 184.178 64.6214 183.546 65.129C182.538 65.917 181.343 66.507 179.961 66.901C178.58 67.295 177.111 67.491 175.553 67.491C174.369 67.491 173.158 67.373 171.919 67.137C170.724 66.9167 169.573 66.5005 168.514 65.905C167.49 65.3262 166.599 64.5389 165.899 63.594C165.186 62.638 164.764 61.44 164.633 60H160.686C160.751 61.665 161.173 63.172 161.952 64.522C162.73 65.872 163.799 67.019 165.159 67.964C166.475 68.886 168.032 69.612 169.829 70.14C171.629 70.669 173.536 70.933 175.553 70.933ZM207.493 26.693C207.537 25.884 207.762 25.17 208.167 24.551C208.573 23.932 209.094 23.533 209.73 23.353C210.169 23.151 210.624 23.033 211.095 22.999C211.567 22.965 212.076 23.004 212.625 23.117C213.237 23.2426 213.822 23.4769 214.352 23.809C214.944 24.1823 215.542 24.5477 216.144 24.905C216.736 25.31 217.356 25.665 218.003 25.968C218.65 26.272 219.401 26.424 220.256 26.424C221.176 26.424 222.016 26.238 222.772 25.867C223.519 25.5037 224.177 24.9795 224.697 24.332C225.26 23.6984 225.691 22.9581 225.963 22.155C226.261 21.3027 226.422 20.4086 226.44 19.506L223.874 19C223.835 19.5408 223.724 20.0741 223.545 20.586C223.387 21.0485 223.154 21.4816 222.855 21.868C222.548 22.251 222.175 22.554 221.736 22.779C221.277 23.0089 220.769 23.1248 220.256 23.117C219.379 23.117 218.584 22.926 217.871 22.543C217.151 22.156 216.453 21.728 215.782 21.261C215.077 20.8087 214.353 20.3863 213.612 19.995C212.866 19.602 212.032 19.405 211.112 19.405C210.169 19.405 209.324 19.591 208.579 19.962C207.845 20.3237 207.195 20.835 206.671 21.463C206.113 22.1098 205.678 22.8534 205.388 23.657C205.079 24.501 204.912 25.3904 204.895 26.289L207.493 26.694V26.693ZM212.263 70.933C213.579 70.933 214.845 70.793 216.062 70.512C217.262 70.2366 218.427 69.8232 219.532 69.28C220.598 68.7678 221.598 68.1274 222.509 67.373C223.404 66.6356 224.205 65.7913 224.894 64.859C224.938 65.804 225.02 66.738 225.141 67.66C225.261 68.582 225.442 69.449 225.683 70.258H229.893V69.82C229.573 68.6588 229.316 67.4815 229.121 66.293C228.915 65.0715 228.799 63.8365 228.775 62.598V44.95C228.753 42.97 228.392 41.238 227.69 39.753C227.016 38.3042 226.027 37.0244 224.795 36.007C223.567 35.04 222.131 34.309 220.486 33.814C218.841 33.319 217.076 33.072 215.19 33.072C213.304 33.072 211.534 33.342 209.878 33.882C208.222 34.422 206.77 35.164 205.52 36.109C204.27 37.076 203.272 38.212 202.526 39.517C201.781 40.822 201.375 42.25 201.309 43.802L205.256 43.836C205.3 42.689 205.596 41.66 206.145 40.749C206.697 39.8336 207.436 39.0456 208.315 38.437C209.193 37.807 210.212 37.323 211.375 36.986C212.562 36.6453 213.79 36.4749 215.025 36.48C216.407 36.48 217.695 36.665 218.891 37.037C220.086 37.407 221.122 37.942 221.999 38.64C222.88 39.3422 223.589 40.2367 224.072 41.255C224.576 42.301 224.839 43.51 224.861 44.882V49H217.131C214.999 48.9917 212.872 49.2008 210.783 49.624C208.765 50.041 207 50.71 205.487 51.632C203.952 52.555 202.729 53.752 201.819 55.226C200.909 56.7 200.454 58.482 200.454 60.575C200.454 62.127 200.761 63.545 201.375 64.827C201.963 66.0755 202.816 67.1808 203.875 68.066C204.927 68.966 206.177 69.669 207.625 70.176C209.072 70.681 210.618 70.934 212.263 70.934V70.933ZM212.723 67.323C211.561 67.323 210.476 67.153 209.467 66.816C208.458 66.479 207.581 66.006 206.835 65.399C206.073 64.7985 205.46 64.0307 205.043 63.155C204.615 62.267 204.401 61.282 204.401 60.202C204.379 58.83 204.664 57.672 205.256 56.727C205.848 55.782 206.649 54.983 207.658 54.331C208.886 53.521 210.377 52.959 212.131 52.644C213.967 52.3212 215.827 52.1516 217.691 52.137H224.861V60.135C224.357 61.2141 223.691 62.2099 222.887 63.088C222.071 63.9797 221.129 64.7469 220.091 65.365C219.013 66.0058 217.85 66.4941 216.638 66.816C215.388 67.154 214.083 67.323 212.723 67.323ZM255.551 70.933C258.029 70.933 260.249 70.438 262.211 69.449C264.136 68.4898 265.835 67.1324 267.195 65.467C268.533 63.779 269.564 61.827 270.287 59.612C271.011 57.396 271.373 55.04 271.373 52.542V51.462C271.373 48.965 271.011 46.603 270.287 44.376C269.564 42.149 268.522 40.203 267.162 38.538C265.812 36.8586 264.111 35.4941 262.179 34.54C260.216 33.56 257.985 33.072 255.485 33.072C252.985 33.072 250.759 33.567 248.808 34.556C246.89 35.5186 245.198 36.8756 243.841 38.538C242.481 40.226 241.439 42.183 240.716 44.41C239.992 46.637 239.63 48.988 239.63 51.463V52.543C239.63 55.04 239.992 57.402 240.716 59.629C241.439 61.856 242.492 63.802 243.874 65.467C245.211 67.1532 246.907 68.5192 248.84 69.465C250.814 70.444 253.05 70.933 255.55 70.933H255.551ZM255.551 67.491C253.599 67.491 251.878 67.075 250.387 66.243C248.918 65.4302 247.648 64.3006 246.67 62.936C245.639 61.541 244.866 59.944 244.35 58.144C243.832 56.3212 243.561 54.437 243.545 52.542V51.462C243.563 49.5786 243.834 47.7062 244.351 45.895C244.866 44.095 245.639 42.509 246.67 41.137C247.637 39.7599 248.902 38.618 250.37 37.796C251.85 36.964 253.555 36.547 255.485 36.547C257.415 36.547 259.12 36.964 260.6 37.796C262.079 38.6277 263.364 39.7665 264.366 41.136C265.353 42.509 266.11 44.095 266.636 45.895C267.162 47.695 267.436 49.55 267.458 51.463V52.543C267.442 54.4377 267.171 56.3216 266.652 58.144C266.137 59.944 265.386 61.53 264.399 62.902C263.4 64.2685 262.122 65.4069 260.649 66.242C259.18 67.075 257.481 67.492 255.551 67.492V67.491Z" fill="white"/>
<g style="mix-blend-mode:screen">
<path fill-rule="evenodd" clip-rule="evenodd" d="M287.858 0H473V95H287.858V0Z" fill="#EE2211"/>
</g>
<path d="M319.499 70.861C321.491 70.861 323.241 70.481 324.752 69.723C326.262 68.964 327.575 67.903 328.692 66.536L329.152 70.211H337.392V20.267H328.232V38.183C327.137 36.969 325.884 36.031 324.472 35.37C323.061 34.71 321.425 34.378 319.564 34.378C317.354 34.378 315.389 34.812 313.671 35.679C311.953 36.546 310.492 37.771 309.288 39.353C308.085 40.936 307.171 42.833 306.547 45.043C305.923 47.255 305.611 49.693 305.611 52.36V53.042C305.611 55.6 305.929 57.969 306.563 60.147C307.198 62.326 308.117 64.207 309.321 65.789C310.47 67.3435 311.958 68.6165 313.671 69.512C315.389 70.412 317.331 70.862 319.499 70.862V70.861ZM321.829 63.513C320.539 63.513 319.444 63.242 318.547 62.7C317.649 62.158 316.917 61.41 316.347 60.456C315.777 59.524 315.367 58.424 315.116 57.156C314.864 55.888 314.738 54.516 314.738 53.042V52.36C314.738 50.886 314.87 49.504 315.132 48.214C315.395 46.924 315.811 45.791 316.38 44.816C316.921 43.8911 317.682 43.1146 318.596 42.556C319.504 42.003 320.604 41.727 321.896 41.727C323.449 41.727 324.741 42.057 325.769 42.719C326.799 43.379 327.619 44.307 328.232 45.499V59.74C327.619 60.91 326.792 61.832 325.753 62.504C324.713 63.176 323.406 63.512 321.83 63.512L321.829 63.513ZM364.149 70.861C367.585 70.861 370.562 70.2 373.079 68.878C375.596 67.555 377.434 66.081 378.595 64.455L374.031 59.578C372.981 60.922 371.612 61.93 369.927 62.602C368.268 63.269 366.495 63.6112 364.707 63.61C363.437 63.61 362.267 63.415 361.194 63.025C360.149 62.6505 359.181 62.0882 358.338 61.366C357.561 60.7114 356.905 59.9247 356.401 59.042C355.919 58.185 355.525 57.052 355.219 55.644V55.546H379.317V51.71C379.317 49.13 378.956 46.773 378.233 44.638C377.511 42.503 376.461 40.677 375.082 39.159C373.681 37.642 371.979 36.466 369.976 35.631C367.974 34.797 365.692 34.379 363.131 34.379C360.658 34.379 358.371 34.824 356.269 35.713C354.169 36.601 352.352 37.848 350.819 39.452C349.287 41.056 348.095 42.969 347.241 45.191C346.387 47.413 345.961 49.868 345.961 52.556V53.856C345.961 56.219 346.393 58.436 347.257 60.506C348.096 62.5393 349.355 64.3729 350.951 65.887C352.549 67.427 354.464 68.64 356.696 69.529C358.929 70.418 361.413 70.862 364.149 70.862V70.861ZM370.354 49.303H355.383C355.602 48.154 355.93 47.113 356.368 46.182C356.776 45.2934 357.331 44.48 358.01 43.776C358.637 43.1093 359.397 42.5828 360.242 42.231C361.096 41.873 362.037 41.695 363.065 41.695C364.225 41.695 365.249 41.873 366.135 42.231C367.022 42.589 367.771 43.071 368.385 43.678C369.004 44.3157 369.494 45.0663 369.829 45.889C370.179 46.734 370.354 47.634 370.354 48.588V49.303ZM407.124 70.211L420.618 35.029H411.098L403.316 59.839L402.824 62.309L402.331 59.839L394.518 35.029H384.997L398.556 70.211H407.125H407.124ZM457.783 77.267V70.21H427.84V77.266H457.782L457.783 77.267Z" fill="white"/>
</svg>
